<svg width="600" height="800" viewBox="0 0 600 800" fill="none" xmlns="http://www.w3.org/2000/svg">
  <defs>
    <linearGradient id="bg" x1="0" y1="0" x2="0" y2="800" gradientUnits="userSpaceOnUse">
      <stop offset="0" stop-color="#FFFFFF" />
      <stop offset="1" stop-color="#F7F6F3" />
    </linearGradient>
    <radialGradient id="bgGlow" cx="0" cy="0" r="1" gradientUnits="userSpaceOnUse" gradientTransform="translate(300 260) rotate(90) scale(520 420)">
      <stop offset="0" stop-color="#2A3A69" stop-opacity="0.10" />
      <stop offset="0.55" stop-color="#000000" stop-opacity="0.06" />
      <stop offset="1" stop-color="#000000" stop-opacity="0.12" />
    </radialGradient>
    <linearGradient id="bottle" x1="300" y1="102" x2="300" y2="742" gradientUnits="userSpaceOnUse">
      <stop offset="0" stop-color="#FCFBF9" />
      <stop offset="0.55" stop-color="#F4F2EE" />
      <stop offset="1" stop-color="#EEEAE2" />
    </linearGradient>
    <linearGradient id="glass" x1="220" y1="160" x2="410" y2="700" gradientUnits="userSpaceOnUse">
      <stop offset="0" stop-color="#FFFFFF" stop-opacity="0.70" />
      <stop offset="0.45" stop-color="#FFFFFF" stop-opacity="0.14" />
      <stop offset="1" stop-color="#FFFFFF" stop-opacity="0.00" />
    </linearGradient>
    <linearGradient id="gold" x1="260" y1="0" x2="360" y2="0" gradientUnits="userSpaceOnUse">
      <stop offset="0" stop-color="#D2B58B" />
      <stop offset="0.55" stop-color="#BFA37A" />
      <stop offset="1" stop-color="#A8844E" />
    </linearGradient>
    <filter id="softShadow" x="98" y="144" width="404" height="676" filterUnits="userSpaceOnUse" color-interpolation-filters="sRGB">
      <feGaussianBlur stdDeviation="14" />
    </filter>
    <filter id="grain" x="-20%" y="-20%" width="140%" height="140%">
      <feTurbulence type="fractalNoise" baseFrequency="0.85" numOctaves="4" stitchTiles="stitch" />
      <feColorMatrix type="matrix" values="0 0 0 0 0.1  0 0 0 0 0.1  0 0 0 0 0.1  0 0 0 0.18 0" />
    </filter>
  </defs>

  <rect x="1" y="1" width="598" height="798" rx="80" fill="url(#bg)" />
  <rect x="1" y="1" width="598" height="798" rx="80" fill="url(#bgGlow)" />
  <rect x="1" y="1" width="598" height="798" rx="80" stroke="#E7E5E1" stroke-width="2" />

  <g opacity="0.14" filter="url(#softShadow)">
    <path d="M250 138C250 118.118 266.118 102 286 102H314C333.882 102 350 118.118 350 138V180C350 188.837 357.163 196 366 196H374C409.346 196 438 224.654 438 260V630C438 691.856 387.856 742 326 742H274C212.144 742 162 691.856 162 630V260C162 224.654 190.654 196 226 196H234C242.837 196 250 188.837 250 180V138Z" fill="#000000" />
  </g>

  <path d="M250 138C250 118.118 266.118 102 286 102H314C333.882 102 350 118.118 350 138V180C350 188.837 357.163 196 366 196H374C409.346 196 438 224.654 438 260V630C438 691.856 387.856 742 326 742H274C212.144 742 162 691.856 162 630V260C162 224.654 190.654 196 226 196H234C242.837 196 250 188.837 250 180V138Z" fill="url(#bottle)" stroke="#E7E1D6" stroke-width="2" />

  <path d="M262 154C262 138.536 274.536 126 290 126H310C325.464 126 338 138.536 338 154V182C338 190.837 345.163 198 354 198H370C398.719 198 422 221.281 422 250V626C422 679.019 379.019 722 326 722H274C220.981 722 178 679.019 178 626V250C178 221.281 201.281 198 230 198H246C254.837 198 262 190.837 262 182V154Z" fill="none" stroke="url(#gold)" stroke-width="3" opacity="0.55" />

  <path d="M210 230C234 214 266 206 300 206C334 206 366 214 390 230V628C390 672.183 354.183 708 310 708H290C245.817 708 210 672.183 210 628V230Z" fill="url(#glass)" opacity="0.55" />

  <rect x="236" y="388" width="128" height="180" rx="22" fill="#FFFFFF" opacity="0.72" />
  <rect x="246" y="398" width="108" height="160" rx="18" stroke="#D9D1C4" stroke-width="2" opacity="0.70" />
  <rect x="286" y="438" width="28" height="88" rx="8" fill="url(#gold)" opacity="0.75" />

  <g opacity="0.25">
    <rect x="292" y="114" width="16" height="44" rx="8" fill="url(#gold)" />
    <rect x="276" y="156" width="48" height="22" rx="11" fill="#0A0A0A" opacity="0.06" />
  </g>

  <rect x="1" y="1" width="598" height="798" rx="80" filter="url(#grain)" opacity="0.06" />
</svg>
